<svg viewBox="0 0 200 200" xmlns="http://www.w3.org/2000/svg">
  <!-- Background for apple touch icon -->
  <rect width="200" height="200" rx="40" fill="#F7F4ED"/>
  <defs>
    <linearGradient id="satiaGradient" x1="0%" y1="0%" x2="100%" y2="100%">
      <stop offset="0%" stop-color="#7FE7C4" />
      <stop offset="40%" stop-color="#7FE7C4" />
      <stop offset="75%" stop-color="#6CB8E0" />
      <stop offset="100%" stop-color="#577DFF" />
    </linearGradient>
  </defs>
  <g transform="translate(100, 105)">
    <!-- Chat bubble -->
    <path
      d="M -55 -18 C -55 -50, -37 -68, 0 -68 C 37 -68, 60 -50, 60 -18 C 60 14, 46 41, 5 46 C -14 48, -28 44, -35 38 L -38 35 L -57 50 L -48 32 C -55 23, -55 9, -55 -18 Z"
      fill="url(#satiaGradient)"
    />
    <g transform="translate(0, -9)">
      <!-- Rice bowl -->
      <path
        d="M -30 4 C -30 14, -24 31, 0 33 C 24 31, 30 14, 30 4 C 18 -3, -18 -3, -30 4 Z"
        fill="#F7F4ED"
      />
      <ellipse cx="0" cy="4" rx="30" ry="7" fill="#F7F4ED" />
      <!-- Leaf -->
      <g transform="translate(-4, 0) rotate(20)">
        <path
          d="M 0 -42 C 11 -37, 14 -24, 10 -11 C 7 -5, 0 0, 0 0 C 0 0, -7 -5, -10 -11 C -14 -24, -11 -37, 0 -42 Z"
          fill="#F7F4ED"
        />
        <line
          x1="0"
          y1="-2"
          x2="0"
          y2="-40"
          stroke="url(#satiaGradient)"
          stroke-width="2.5"
          stroke-linecap="round"
          opacity="0.6"
        />
      </g>
    </g>
    <!-- Blue dot -->
    <circle cx="29" cy="-35" r="5.5" fill="#577DFF" />
  </g>
</svg>
