<svg viewBox="0 0 200 200" xmlns="http://www.w3.org/2000/svg">
  <defs>
    <linearGradient id="satiaGradient" x1="0%" y1="0%" x2="100%" y2="100%">
      <stop offset="0%" stop-color="#7FE7C4" />
      <stop offset="40%" stop-color="#7FE7C4" />
      <stop offset="75%" stop-color="#6CB8E0" />
      <stop offset="100%" stop-color="#577DFF" />
    </linearGradient>
  </defs>
  <g transform="translate(100, 100)">
    <!-- Chat bubble -->
    <path
      d="M -60 -20 C -60 -55, -40 -75, 0 -75 C 40 -75, 65 -55, 65 -20 C 65 15, 50 45, 5 50 C -15 52, -30 48, -38 42 L -42 38 L -62 55 L -52 35 C -60 25, -60 10, -60 -20 Z"
      fill="url(#satiaGradient)"
    />
    <g transform="translate(0, -10)">
      <!-- Rice bowl -->
      <path
        d="M -33 4 C -33 15, -26 34, 0 36 C 26 34, 33 15, 33 4 C 20 -3, -20 -3, -33 4 Z"
        fill="#F7F4ED"
      />
      <ellipse cx="0" cy="4" rx="33" ry="8" fill="#F7F4ED" />
      <!-- Leaf -->
      <g transform="translate(-4, 0) rotate(20)">
        <path
          d="M 0 -46 C 12 -40, 15 -26, 11 -12 C 8 -5, 0 0, 0 0 C 0 0, -8 -5, -11 -12 C -15 -26, -12 -40, 0 -46 Z"
          fill="#F7F4ED"
        />
        <line
          x1="0"
          y1="-2"
          x2="0"
          y2="-44"
          stroke="url(#satiaGradient)"
          stroke-width="2.5"
          stroke-linecap="round"
          opacity="0.6"
        />
      </g>
    </g>
    <!-- Blue dot -->
    <circle cx="32" cy="-38" r="6" fill="#577DFF" />
  </g>
</svg>
